PathFileType	4	(X/Y/Z)	./resultDataOpenSim/trcMotMarkerGrf/sub06/qtm-01-06.trc
DataRate	CameraRate	NumFrames	NumMarkers	Units	OrigDataRate	OrigDataStartFrame	OrigNumFrames
250.000000	250.000000	9	24	m	250.000000	376	501
Frame#	Time	L.Toe.Tip			R.Toe.Tip			L.Ankle.Lat			R.Ankle.Lat			L.Ankle.Med			R.Ankle.Med			L.Heel			R.Heel			L.Knee.Lat			R.Knee.Lat			L.Knee.Med			R.Knee.Med			L.Thigh.Upper			R.Thigh.Upper			L.ASIS			R.ASIS			V.Sacral			L.Acromium			R.Acromium			C7			L.Elbow			R.Elbow			L.Wrist.Lat			R.Wrist.Lat
		X1	Y1	Z1	X2	Y2	Z2	X3	Y3	Z3	X4	Y4	Z4	X5	Y5	Z5	X6	Y6	Z6	X7	Y7	Z7	X8	Y8	Z8	X9	Y9	Z9	X10	Y10	Z10	X11	Y11	Z11	X12	Y12	Z12	X13	Y13	Z13	X14	Y14	Z14	X15	Y15	Z15	X16	Y16	Z16	X17	Y17	Z17	X18	Y18	Z18	X19	Y19	Z19	X20	Y20	Z20	X21	Y21	Z21	X22	Y22	Z22	X23	Y23	Z23	X24	Y24	Z24

376	1.5	1.3362075	0.083300343	-0.096785918	0.87349263	0.034503994	0.066810568	1.2084245	0.093903762	-0.11062342	0.74293893	0.079854763	0.093348156	1.2159968	0.10894404	-0.026924888	0.76781539	0.10357265	0.0086200311	1.1456796	0.049995605	-0.063414623	0.68705523	0.071268023	0.032901979	1.1949774	0.47238006	-0.10506408	0.88875861	0.44325787	0.13743152	1.1859967	0.4592934	0.01516458	0.86341111	0.44677872	0.0072345473	1.0176834	0.82098758	-0.1372148	0.95606079	0.8031443	0.20541742	1.0771447	0.86398816	-0.081036307	1.0601795	0.85666191	0.16709462	0.88151521	0.9328655	0.031266624	0.97999585	1.3428402	-0.14662064	1.0039385	1.334187	0.21409381	0.91457065	1.373009	0.038714097	0.88549143	1.0418122	-0.19990866	1.0104221	1.0198622	0.31057569	0.98841678	0.82258664	-0.23507364	1.2453536	0.9376291	0.29319427
377	1.504	1.3545399	0.087364197	-0.095052734	0.87356409	0.034486812	0.066771953	1.2264318	0.093721152	-0.10952523	0.74337291	0.080607682	0.09335582	1.2332554	0.10906278	-0.025939377	0.76846142	0.10407575	0.0085479044	1.1650898	0.047609874	-0.06198139	0.68743963	0.072383524	0.03291057	1.2010017	0.47085463	-0.10410007	0.89215231	0.44295198	0.13735145	1.1919984	0.45754862	0.016302909	0.86709543	0.44650809	0.0070162206	1.0245509	0.81965942	-0.13733906	0.96192599	0.80204596	0.20520982	1.0839453	0.86266775	-0.081261609	1.0663099	0.85544066	0.16713266	0.88830045	0.93151446	0.030718332	0.98635556	1.3415594	-0.14667898	1.0101518	1.3331011	0.21401888	0.9208298	1.3718179	0.038636809	0.89078098	1.0411351	-0.1995937	1.0184344	1.0189292	0.31086125	0.99157747	0.8211097	-0.23570297	1.2540871	0.93895668	0.29222867
378	1.508	1.3723433	0.091580027	-0.093443293	0.87363146	0.034472745	0.066753406	1.2440526	0.093840037	-0.10840229	0.74384478	0.081373322	0.093407037	1.2502535	0.10945226	-0.024866737	0.76911057	0.10460923	0.0085346241	1.1841807	0.045613883	-0.060348635	0.68783877	0.073552096	0.032987747	1.2070028	0.46922577	-0.10311113	0.89565273	0.44260475	0.13734542	1.1979573	0.45571761	0.017493824	0.8708009	0.44621449	0.0068821672	1.0311677	0.81830098	-0.13740338	0.96787755	0.80095025	0.20501247	1.0907711	0.86134614	-0.081512637	1.0725852	0.85423267	0.16702047	0.89543552	0.93006614	0.030243419	0.99272552	1.3402484	-0.14675081	1.0163676	1.3319782	0.21393341	0.92709895	1.3706022	0.038551194	0.89614896	1.040422	-0.19927485	1.0263986	1.0179631	0.31110402	0.99486222	0.8196207	-0.23632541	1.2627308	0.94020416	0.29126845
379	1.512	1.3895701	0.095960603	-0.091946712	0.87369332	0.03446458	0.066759625	1.2612441	0.094241563	-0.10726578	0.74435472	0.082154398	0.093498212	1.2669642	0.11005988	-0.023645784	0.76974332	0.10518029	0.0086114047	1.2029075	0.044073811	-0.058810094	0.68824381	0.074775836	0.033150345	1.2130264	0.46751539	-0.10211544	0.89923998	0.44220783	0.13738358	1.2038846	0.45381629	0.018731813	0.87455267	0.44588478	0.0068280587	1.0376841	0.81690705	-0.13745085	0.97388458	0.7998435	0.20479351	1.0976275	0.86002498	-0.081782019	1.0789742	0.85300293	0.16678897	0.90289493	0.92853611	0.029835084	0.99910817	1.3389086	-0.1468323	1.0225875	1.3308205	0.21383765	0.93338671	1.369361	0.038440509	0.90159553	1.0396679	-0.19896739	1.0343239	1.0169639	0.31130865	0.99826477	0.81811845	-0.23693499	1.2713172	0.94136564	0.29030381
380	1.516	1.4061737	0.1005475	-0.090588631	0.87375037	0.034459804	0.066781907	1.2779792	0.09490697	-0.10611586	0.74490367	0.082958031	0.09363633	1.283257	0.11085836	-0.022301714	0.77035041	0.10579752	0.0087945189	1.2212473	0.04297498	-0.057448305	0.68865152	0.076054731	0.033403896	1.2190963	0.46573637	-0.10112915	0.90291576	0.44177939	0.13743328	1.2098018	0.45186067	0.02001277	0.87837615	0.44552506	0.0068325475	1.0442759	0.8154688	-0.13752467	0.97991304	0.79870317	0.20453186	1.1045183	0.85870881	-0.082059093	1.0854298	0.85174289	0.16647837	0.91061674	0.92694263	0.029480151	1.0055113	1.3375433	-0.14692256	1.0288131	1.3296328	0.21373323	0.93970376	1.3680971	0.038299095	0.90711895	1.0388759	-0.19867559	1.0422206	1.0159317	0.31147546	1.0017496	0.81660259	-0.23752692	1.279865	0.94243622	0.28932422
381	1.52	1.4221129	0.10535058	-0.089401616	0.87380708	0.034452674	0.066805615	1.2942224	0.095811605	-0.10492456	0.74549578	0.083795283	0.093838526	1.2989455	0.11183549	-0.020944976	0.77094889	0.10646077	0.0090634944	1.2391384	0.042224283	-0.056130928	0.68907494	0.077390426	0.033740003	1.2252279	0.46390009	-0.10015486	0.90669014	0.44132741	0.13748543	1.2157367	0.44987447	0.021332869	0.88228564	0.44514857	0.0068765829	1.0510159	0.81399028	-0.13764505	0.98594736	0.79752037	0.20422561	1.111446	0.8574008	-0.082334952	1.0919036	0.85045512	0.16618015	0.91853228	0.92530337	0.029164331	1.0119424	1.3361573	-0.1470261	1.0350477	1.328417	0.21362186	0.94605204	1.3668157	0.038135817	0.91271682	1.0380504	-0.19839653	1.0500888	1.0148643	0.31159334	1.0052914	0.81507428	-0.23809965	1.2883791	0.94341416	0.28832513
382	1.524	1.4373737	0.11025885	-0.088324152	0.87387093	0.034444095	0.066827818	1.3099109	0.096918006	-0.10365695	0.74614838	0.084679917	0.094118919	1.3139037	0.1129457	-0.01965674	0.77157163	0.10715802	0.0093739219	1.2564335	0.041740247	-0.054755073	0.68952956	0.078791301	0.034153096	1.2314417	0.46202702	-0.0991861	0.91057377	0.44084631	0.13754398	1.221709	0.44788972	0.022693398	0.88629348	0.44475776	0.0069528769	1.0578802	0.81248465	-0.1378089	0.99199971	0.7963009	0.20389631	1.1184144	0.85610312	-0.082605366	1.0983975	0.84914144	0.16598977	0.92657738	0.92363493	0.028874263	1.0184045	1.3347555	-0.14715074	1.0412954	1.3271726	0.21350486	0.95242562	1.3655249	0.037961104	0.91838486	1.0371912	-0.19813046	1.0579211	1.0137609	0.31165005	1.0088905	0.81353372	-0.23864764	1.2968431	0.94430133	0.28732146
383	1.528	1.4519804	0.1150563	-0.087204739	0.8739485	0.034441511	0.066857604	1.3249656	0.098175312	-0.10229771	0.74688948	0.085617687	0.094477095	1.3281035	0.1140886	-0.018413231	0.77224002	0.10788086	0.0097009174	1.2729712	0.041489714	-0.053334219	0.69002195	0.080268789	0.034643238	1.2377606	0.46015035	-0.098217177	0.91457762	0.44032952	0.1376158	1.2277298	0.44594911	0.024103974	0.89041683	0.44434334	0.0070562013	1.0648206	0.81096444	-0.13799578	0.99808807	0.7950529	0.2035692	1.1254325	0.85482303	-0.082871833	1.1049353	0.84780714	0.16591759	0.93469386	0.92195314	0.028597144	1.0248983	1.3333423	-0.14730292	1.0475579	1.3259017	0.21338206	0.95881531	1.3642327	0.037774151	0.92411907	1.0362961	-0.19788047	1.0657062	1.0126209	0.31164292	1.0125567	0.81197958	-0.23916278	1.3052278	0.94509891	0.28633894
384	1.532	1.4659701	0.11955899	-0.085959436	0.87403931	0.034446691	0.066898997	1.3393335	0.099518606	-0.10084935	0.74773507	0.086588552	0.094906087	1.3416085	0.11516902	-0.01712473	0.77295762	0.10863465	0.010051187	1.2886711	0.041458958	-0.051941732	0.69055344	0.08182847	0.035206465	1.2441992	0.45831008	-0.097243922	0.91871099	0.43977822	0.13770654	1.2338165	0.44410747	0.025569466	0.89468135	0.44389072	0.0071758471	1.0718134	0.80944371	-0.13818331	1.0042134	0.79378515	0.2032515	1.1325211	0.85357132	-0.083141615	1.1115063	0.84646242	0.16588762	0.94283037	0.92027277	0.028319146	1.0314224	1.3319178	-0.1474834	1.0538354	1.3246092	0.21325146	0.96521544	1.3629418	0.037564557	0.92992032	1.0353653	-0.19765351	1.0734346	1.0114446	0.31157853	1.0162993	0.8104127	-0.23964301	1.3135191	0.94580473	0.28538807
